<?xml version="1.0" standalone="no"?>
<!DOCTYPE svg PUBLIC "-//W3C//DTD SVG 20010904//EN"
 "http://www.w3.org/TR/2001/REC-SVG-20010904/DTD/svg10.dtd">
<svg version="1.0" xmlns="http://www.w3.org/2000/svg"
 width="500.000000pt" height="500.000000pt" viewBox="0 0 500.000000 500.000000"
 preserveAspectRatio="xMidYMid meet">

<g transform="translate(0.000000,500.000000) scale(0.100000,-0.100000)"
fill="#000000" stroke="none">
<path d="M2360 3883 c-262 -18 -419 -58 -619 -156 -94 -46 -144 -87 -127 -104
3 -3 6 -1 6 6 0 38 239 102 600 161 427 69 471 67 506 -17 27 -63 4 -600 -29
-675 l-16 -38 -233 0 c-128 0 -314 -5 -413 -11 -99 -6 -220 -12 -270 -15 -83
-4 -285 -26 -364 -40 -32 -5 -33 -4 -28 23 6 25 5 25 -9 -6 -8 -18 -13 -35
-12 -37 2 -2 53 4 113 12 61 9 149 14 197 12 47 -2 84 0 81 5 -2 4 0 7 5 7 6
0 12 -6 15 -14 4 -9 14 -12 28 -9 22 6 22 7 3 14 -12 5 8 8 50 8 63 1 73 -2
98 -26 22 -21 28 -23 28 -10 0 20 11 22 28 5 9 -9 12 -9 12 0 0 17 31 15 57
-3 12 -9 34 -13 48 -11 24 4 25 3 25 -43 0 -26 5 -52 12 -59 8 -8 48 -12 112
-12 l101 0 -3 66 c-2 36 0 70 6 76 5 5 40 11 77 12 55 3 71 0 85 -14 12 -12
27 -16 40 -13 12 3 28 -1 38 -10 14 -13 20 -13 36 -2 11 9 15 19 10 27 -6 10
-5 11 8 1 8 -7 17 -11 20 -8 3 3 10 -1 17 -9 8 -10 21 -12 46 -6 34 8 42 1 36
-32 0 -5 3 -8 9 -8 5 0 7 -6 4 -14 -3 -8 -1 -17 5 -21 6 -3 9 0 5 8 -3 8 0 18
6 22 8 5 10 -13 8 -60 l-3 -66 -349 1 c-192 0 -352 2 -355 4 -4 3 -103 6 -221
7 -118 1 -222 4 -232 7 -9 2 -18 12 -21 22 -4 16 -16 18 -108 18 -113 -1 -139
-8 -139 -38 0 -17 -7 -20 -40 -20 -29 0 -42 -5 -50 -19 -18 -34 -11 -40 43
-43 51 -3 52 -4 55 -36 l3 -33 117 3 117 3 3 38 3 37 77 0 c71 0 390 9 893 26
l205 6 -3 -148 c-7 -319 -24 -926 -30 -1071 l-6 -153 44 0 c66 0 230 27 314
51 l75 22 0 322 0 321 35 34 34 33 3 116 c3 108 4 116 23 116 19 0 20 -7 20
-190 0 -104 -2 -273 -4 -375 l-4 -185 34 1 c67 2 149 26 179 51 58 48 61 63
75 367 14 284 25 371 53 415 17 25 68 51 102 51 17 0 20 -6 20 -49 l0 -50 47
-7 c52 -8 258 8 270 20 5 4 8 146 7 314 0 347 -6 391 -72 516 -69 131 -236
279 -397 351 -175 78 -425 150 -675 196 -148 26 -451 43 -600 32z m607 -186
c-3 -7 -2 -40 2 -72 l7 -60 5 57 c2 31 1 54 -3 51 -5 -2 -8 1 -8 6 0 18 28 12
49 -10 23 -25 32 -77 18 -104 -16 -32 -58 -66 -76 -63 -14 3 -16 17 -14 98 2
90 1 95 -20 102 -18 5 -16 6 12 7 23 1 32 -3 28 -12z m831 -694 l3 -112 -33
-6 c-18 -3 -125 -5 -238 -3 l-205 3 -3 75 c-4 97 2 116 41 140 29 19 48 20
232 18 l200 -3 3 -112z m-1375 30 c-13 -2 -35 -2 -50 0 -16 2 -5 4 22 4 28 0
40 -2 28 -4z m-463 -29 c0 -8 -4 -12 -10 -9 -5 3 -10 10 -10 16 0 5 5 9 10 9
6 0 10 -7 10 -16z m96 7 c-6 -8 -65 -5 -74 4 -3 3 14 5 37 5 23 0 40 -4 37 -9z
m88 -23 c-3 -4 -12 -8 -20 -8 -8 0 -13 4 -10 8 3 5 12 9 20 9 8 0 13 -4 10 -9z
m591 2 c3 -6 -1 -7 -9 -4 -18 7 -21 14 -7 14 6 0 13 -4 16 -10z"/>
<path d="M1429 3557 c-38 -26 -64 -84 -55 -122 9 -37 56 -84 94 -94 30 -9 44
0 22 14 -6 4 -8 11 -4 16 3 5 10 6 16 3 7 -5 9 2 6 19 -3 15 -2 24 2 22 11 -7
21 22 14 39 -3 8 -1 23 6 33 9 16 10 15 5 -7 -4 -18 -3 -21 4 -10 15 24 21 83
9 97 -17 21 -81 15 -119 -10z m86 -7 c3 -6 -1 -7 -9 -4 -18 7 -21 14 -7 14 6
0 13 -4 16 -10z"/>
<path d="M1456 3245 c-9 -26 -7 -32 5 -12 6 10 9 21 6 23 -2 3 -7 -2 -11 -11z"/>
<path d="M1421 3159 c-6 -18 -9 -34 -7 -36 2 -2 9 10 15 28 6 18 9 34 7 36 -2
2 -9 -10 -15 -28z"/>
<path d="M2240 3179 c-78 -14 -450 -112 -446 -116 6 -6 405 82 481 106 62 20
44 25 -35 10z"/>
<path d="M1386 3075 c-9 -26 -7 -32 5 -12 6 10 9 21 6 23 -2 3 -7 -2 -11 -11z"/>
<path d="M1880 2990 c0 -5 9 -10 21 -10 11 0 17 5 14 10 -3 6 -13 10 -21 10
-8 0 -14 -4 -14 -10z"/>
<path d="M2566 2955 c4 -8 8 -15 10 -15 2 0 4 7 4 15 0 8 -4 15 -10 15 -5 0
-7 -7 -4 -15z"/>
<path d="M2520 2952 c0 -5 7 -16 16 -23 14 -12 16 -11 13 5 -4 20 -29 35 -29
18z"/>
<path d="M2651 2946 c-8 -10 -9 -16 -1 -21 5 -3 10 -1 10 4 0 6 9 11 20 11 11
0 20 -5 20 -12 0 -6 3 -8 6 -5 9 9 -15 37 -31 37 -7 0 -18 -6 -24 -14z"/>
<path d="M2024 2935 c-10 -7 -15 -17 -11 -21 4 -5 12 -2 17 6 8 12 13 13 30 2
11 -7 20 -8 20 -2 0 20 -36 30 -56 15z"/>
<path d="M1860 2925 c-8 -9 -9 -15 -2 -15 6 0 14 5 17 10 4 7 13 7 26 0 11 -6
19 -7 19 -1 0 9 -23 21 -40 21 -4 0 -13 -7 -20 -15z"/>
<path d="M1385 2919 c-4 -6 -4 -13 0 -17 3 -3 10 0 14 7 6 8 17 11 32 6 19 -5
21 -4 9 4 -19 14 -47 14 -55 0z"/>
<path d="M1546 2922 c-2 -4 10 -8 29 -8 19 0 31 4 29 8 -3 4 -16 8 -29 8 -13
0 -26 -4 -29 -8z"/>
<path d="M1707 2923 c-3 -5 10 -8 28 -9 19 0 32 3 29 8 -6 10 -51 11 -57 1z"/>
<path d="M2100 2679 c-366 -56 -529 -62 -790 -28 -47 6 -103 12 -124 13 -39 1
-40 0 -53 -44 -8 -25 -15 -88 -15 -140 -2 -116 18 -193 61 -234 29 -28 31 -28
55 -12 37 23 56 21 56 -9 0 -14 5 -24 12 -22 23 5 49 -113 51 -238 l2 -119
-45 -17 c-24 -9 -46 -21 -48 -28 -5 -15 9 -14 53 5 51 21 187 29 256 15 82
-17 157 -66 201 -131 43 -62 88 -192 88 -251 l0 -39 -27 24 c-16 13 -39 34
-53 46 -31 27 -6 15 38 -18 17 -13 32 -21 32 -17 0 25 -69 143 -102 176 -88
86 -200 68 -326 -51 -41 -39 -45 -40 -111 -40 l-68 0 -43 -46 c-61 -67 -93
-142 -98 -237 -17 -289 230 -485 471 -374 109 50 191 169 205 299 7 62 8 63
36 60 16 -2 43 -10 59 -19 27 -14 29 -14 24 2 -4 9 -12 46 -17 82 -6 36 -12
70 -13 77 -1 7 19 11 58 12 52 1 60 4 58 20 -1 11 -9 98 -18 194 -8 96 -20
222 -25 280 -6 58 -10 138 -10 178 l0 73 38 16 c49 21 103 33 96 22 -3 -5 0
-9 5 -9 6 0 11 7 11 16 0 11 6 15 20 11 11 -3 22 -1 25 3 3 5 13 9 23 8 9 0
40 9 67 20 28 12 75 30 105 40 182 65 203 76 212 107 14 52 10 196 -7 245 -42
118 -101 130 -425 79z m-195 -125 c-19 -31 -36 -68 -40 -83 -3 -14 -15 -33
-27 -40 -18 -11 -20 -11 -15 3 4 10 1 19 -8 22 -24 9 -17 22 13 27 26 4 25 4
-5 6 -17 0 -35 -4 -38 -9 -4 -6 -10 -8 -15 -5 -5 3 -12 0 -16 -6 -5 -8 -3 -9
6 -4 10 6 12 3 8 -12 -7 -27 41 -49 72 -33 17 9 21 8 27 -7 3 -10 17 -30 31
-46 19 -20 23 -30 15 -38 -21 -21 -458 -39 -520 -23 -28 8 -32 20 -26 76 l5
46 27 -14 c14 -8 34 -11 44 -8 9 3 17 1 17 -4 0 -5 7 -9 16 -9 15 0 15 2 0 13
-11 8 -13 14 -6 19 18 11 -28 65 -56 65 -13 0 -24 -4 -24 -10 0 -5 10 -10 22
-10 17 0 19 -3 10 -12 -8 -8 -9 -15 -1 -25 15 -18 4 -16 -26 3 -14 9 -25 26
-25 38 0 11 -11 45 -25 75 l-25 53 27 -6 c116 -25 148 -28 283 -22 80 3 174
13 210 20 105 22 103 23 65 -40z m248 12 c82 -76 38 -236 -65 -236 -73 0 -120
77 -103 167 15 83 110 123 168 69z m-926 -36 c16 -31 17 -131 2 -164 -26 -56
-72 -39 -87 31 -11 52 -2 123 18 148 19 22 52 15 67 -15z m329 -1212 c10 -12
13 -18 5 -13 -10 5 -12 4 -7 -3 4 -7 13 -12 21 -12 17 0 29 -31 15 -40 -8 -5
-7 -15 2 -35 10 -23 10 -29 -5 -40 -9 -7 -17 -17 -17 -22 0 -6 -7 -16 -15 -23
-12 -10 -16 -8 -24 11 -5 13 -6 28 -4 33 10 16 3 109 -8 123 -7 8 -19 11 -28
8 -9 -3 -5 4 9 15 31 25 33 25 56 -2z m-59 -124 c-1 -41 -5 -74 -9 -74 -5 0
-8 6 -8 13 -6 129 -4 155 7 145 8 -6 11 -36 10 -84z"/>
<path d="M1594 2502 c-34 -3 -105 -69 -87 -81 6 -3 13 -16 17 -28 24 -76 160
-74 192 4 14 32 13 35 -16 67 -33 35 -54 43 -106 38z m31 -92 c-5 -8 -11 -8
-17 -2 -6 6 -7 16 -3 22 5 8 11 8 17 2 6 -6 7 -16 3 -22z"/>
<path d="M1470 2470 c0 -5 5 -10 11 -10 5 0 7 5 4 10 -3 6 -8 10 -11 10 -2 0
-4 -4 -4 -10z"/>
<path d="M2733 2603 c-18 -6 -16 -40 1 -46 8 -3 20 1 27 9 10 12 9 18 -2 28
-8 8 -20 12 -26 9z"/>
<path d="M3710 2516 c0 -21 21 -31 30 -15 5 7 6 17 4 21 -9 14 -34 9 -34 -6z"/>
<path d="M3666 2373 c-12 -12 -6 -33 9 -33 8 0 15 6 15 14 0 17 -14 28 -24 19z"/>
<path d="M2727 2354 c-14 -15 -6 -34 14 -34 14 0 19 5 17 17 -3 18 -20 27 -31
17z"/>
<path d="M3640 2166 c0 -10 9 -16 21 -16 24 0 21 23 -4 28 -10 2 -17 -3 -17
-12z"/>
<path d="M3980 2159 c-96 -39 -194 -201 -214 -354 -5 -44 -3 -40 19 31 52 175
123 277 218 313 36 14 45 20 27 20 -14 0 -36 -5 -50 -10z"/>
<path d="M2714 2105 c-7 -18 3 -35 21 -35 21 0 28 19 15 35 -16 19 -29 19 -36
0z"/>
<path d="M4014 2071 c-48 -29 -105 -117 -103 -159 0 -10 6 -4 12 13 29 73 77
133 119 148 7 2 11 7 8 10 -3 4 -19 -2 -36 -12z"/>
<path d="M2342 2069 c-47 -14 -89 -77 -98 -145 -4 -37 -2 -59 6 -69 10 -12 7
-15 -13 -20 -14 -4 -34 -16 -43 -27 -16 -16 -16 -21 -4 -29 8 -5 21 -7 28 -4
10 4 12 -4 10 -28 -3 -31 -2 -32 32 -29 19 2 42 10 51 18 15 13 17 11 23 -17
7 -36 32 -69 52 -69 19 0 44 41 44 73 l0 29 35 -31 c20 -17 45 -31 56 -31 18
0 21 5 17 35 -4 34 -3 35 28 35 18 0 36 4 39 10 7 11 -42 60 -60 60 -9 0 -12
20 -11 68 1 74 -19 132 -45 132 -9 0 -23 9 -30 20 -17 24 -71 32 -117 19z"/>
<path d="M3645 1981 c-7 -12 12 -24 25 -16 11 7 4 25 -10 25 -5 0 -11 -4 -15
-9z"/>
<path d="M4060 1923 c-42 -16 -110 -117 -110 -165 0 -28 -40 -48 -97 -48 l-53
0 0 -68 c0 -90 23 -154 74 -207 65 -68 134 -73 200 -14 61 53 80 107 88 254 4
72 10 141 13 155 10 37 -32 94 -70 97 -17 1 -37 -1 -45 -4z m50 -267 c0 -52
-31 -101 -64 -101 -14 -1 -22 3 -19 7 2 5 14 6 25 2 13 -4 18 -2 14 4 -4 6 2
15 11 21 10 5 14 13 10 17 -4 4 -13 -1 -21 -11 -7 -10 -17 -15 -23 -12 -14 9
-9 123 5 120 15 -4 16 13 2 22 -6 4 -5 11 2 19 20 21 58 -38 58 -88z"/>
<path d="M4061 1735 c1 -22 16 -48 22 -38 3 5 0 19 -8 29 -8 10 -14 15 -14 9z"/>
<path d="M3901 1874 c0 -11 3 -14 6 -6 3 7 2 16 -1 19 -3 4 -6 -2 -5 -13z"/>
<path d="M2714 1859 c-9 -15 11 -33 30 -26 9 4 13 13 10 22 -7 17 -30 20 -40
4z"/>
<path d="M1444 1798 c-4 -5 -15 -8 -25 -5 -11 3 -19 1 -19 -4 0 -5 -20 -9 -45
-9 -31 0 -47 -5 -51 -14 -3 -8 -19 -18 -35 -21 -16 -4 -29 -10 -29 -15 0 -5
-12 -10 -27 -12 -19 -2 -28 -8 -27 -20 1 -10 -7 -20 -17 -23 -29 -9 -80 -75
-77 -98 5 -35 24 -29 37 12 6 22 16 43 21 46 6 4 7 -1 3 -11 -5 -14 -3 -16 11
-11 34 13 36 -5 6 -40 -36 -41 -33 -51 10 -33 34 14 80 64 80 86 0 8 5 14 10
14 6 0 10 -4 10 -10 0 -5 7 -10 15 -10 8 0 15 4 15 10 0 14 42 50 52 44 4 -3
8 0 8 5 0 6 11 11 25 11 14 0 28 6 31 13 5 14 134 14 222 1 37 -5 42 -4 42 14
0 52 -99 112 -135 82 -11 -9 -14 -22 -10 -41 6 -24 4 -27 -15 -22 -27 7 -38
32 -19 43 7 5 10 12 6 16 -12 12 -66 13 -73 2z m-97 -67 c0 -20 -6 -31 -19
-34 -11 -3 -16 -1 -11 6 4 6 -2 8 -17 4 -19 -5 -18 -1 11 23 19 16 34 29 35
30 0 0 1 -13 1 -29z m278 19 c3 -5 1 -10 -4 -10 -6 0 -11 5 -11 10 0 6 2 10 4
10 3 0 8 -4 11 -10z m-230 -30 c-3 -5 -12 -10 -18 -10 -7 0 -6 4 3 10 19 12
23 12 15 0z m-150 -40 c-3 -5 -12 -10 -18 -10 -7 0 -6 4 3 10 19 12 23 12 15
0z m8 -25 c-3 -9 -8 -14 -10 -11 -3 3 -2 9 2 15 9 16 15 13 8 -4z"/>
<path d="M3656 1785 c-3 -9 1 -18 10 -22 19 -7 28 2 21 22 -8 19 -23 19 -31 0z"/>
<path d="M2601 1664 c0 -11 3 -14 6 -6 3 7 2 16 -1 19 -3 4 -6 -2 -5 -13z"/>
<path d="M2460 1620 c-13 -8 -12 -10 3 -10 9 0 17 5 17 10 0 12 -1 12 -20 0z"/>
<path d="M2704 1615 c-4 -9 -2 -21 4 -27 15 -15 44 -1 40 19 -4 23 -36 29 -44
8z"/>
<path d="M2178 1613 c6 -2 18 -2 25 0 6 3 1 5 -13 5 -14 0 -19 -2 -12 -5z"/>
<path d="M2184 1555 c-30 -28 -30 -39 2 -64 18 -14 31 -18 43 -12 20 10 40 4
68 -21 29 -27 61 -17 59 20 0 15 -9 34 -18 43 -10 9 -18 21 -18 27 0 14 -29
25 -73 28 -28 1 -45 -5 -63 -21z"/>
<path d="M2116 1493 c13 -55 38 -96 75 -122 24 -16 38 -34 39 -48 0 -12 5 -25
10 -28 6 -4 10 5 10 19 0 22 6 27 46 37 44 11 114 60 114 80 0 32 -118 -14
-147 -57 l-16 -26 -18 48 c-19 49 -83 124 -106 124 -9 0 -11 -8 -7 -27z"/>
<path d="M2225 1461 c-3 -6 0 -21 7 -33 10 -20 13 -21 16 -5 2 9 8 17 13 17 5
0 7 -12 3 -27 l-6 -28 23 23 c19 18 22 26 13 40 -13 19 -59 28 -69 13z"/>
</g>
</svg>
